<?xml version="1.0" standalone="no"?>
<!DOCTYPE svg PUBLIC "-//W3C//DTD SVG 20010904//EN"
 "http://www.w3.org/TR/2001/REC-SVG-20010904/DTD/svg10.dtd">
<svg version="1.0" xmlns="http://www.w3.org/2000/svg"
 width="700.000000pt" height="700.000000pt" viewBox="0 0 700.000000 700.000000"
 preserveAspectRatio="xMidYMid meet">
<metadata>
Created by potrace 1.11, written by Peter Selinger 2001-2013
</metadata>
<g transform="translate(0.000000,700.000000) scale(0.100000,-0.100000)"
fill="#000000" stroke="none">
<path d="M4180 6799 c-472 -41 -1052 -185 -1555 -387 -1107 -443 -1973 -1116
-2315 -1802 -116 -231 -227 -648 -271 -1015 -17 -139 -17 -537 0 -670 106
-850 557 -1555 1320 -2065 635 -424 1517 -660 2288 -612 684 43 1231 233 1735
602 140 102 411 374 521 521 314 421 534 976 626 1575 154 1005 2 2227 -370
2966 -140 278 -331 512 -521 636 -193 125 -514 221 -843 252 -127 12 -476 11
-615 -1z m-2081 -2624 c23 -7 51 -62 51 -99 0 -14 -13 -40 -29 -58 l-29 -33
-456 -3 -456 -3 2 -307 3 -307 320 -1 c176 0 330 -4 342 -8 24 -8 53 -62 53
-100 0 -14 -13 -40 -29 -58 l-28 -32 -329 -1 -329 0 -2 -350 c-1 -192 -2 -357
-2 -366 -1 -9 -12 -28 -26 -43 -44 -48 -143 -26 -165 37 -15 45 -13 1631 3
1677 23 66 14 65 579 63 279 -1 516 -4 527 -8z m486 -9 c18 -8 38 -23 44 -34
8 -14 11 -195 11 -569 0 -324 4 -574 10 -611 23 -142 76 -225 192 -300 86 -56
161 -75 262 -70 140 7 247 71 331 198 74 111 75 118 75 765 0 537 1 561 20
592 36 59 142 50 170 -16 8 -20 10 -197 8 -632 -3 -597 -4 -605 -26 -671 -49
-146 -177 -292 -322 -367 -96 -50 -180 -71 -290 -71 -165 0 -296 53 -420 167
-88 81 -143 163 -177 266 l-28 82 -3 597 c-3 513 -1 601 12 632 22 53 68 68
131 42z m1638 -1 c18 -8 43 -32 57 -53 13 -20 69 -93 123 -162 55 -69 282
-360 506 -648 l406 -523 5 665 c5 652 5 665 26 692 25 35 68 47 112 33 65 -21
62 18 62 -899 l0 -831 -24 -24 c-30 -30 -70 -41 -105 -29 -32 11 -24 2 -618
763 l-488 623 -5 -669 c-4 -546 -8 -673 -19 -686 -7 -9 -31 -22 -52 -27 -51
-14 -88 3 -111 50 -17 32 -18 94 -18 840 0 746 1 808 18 840 16 33 52 60 80
60 8 0 28 -7 45 -15z"/>
<path d="M6435 1095 c-121 -27 -231 -91 -325 -191 -101 -106 -134 -188 -129
-312 8 -171 129 -315 315 -378 69 -23 90 -26 166 -21 75 4 97 10 170 45 68 33
98 56 157 117 148 156 209 305 181 443 -45 221 -283 353 -535 297z"/>
</g>
</svg>
