<svg version="1" xmlns="http://www.w3.org/2000/svg" width="933.333" height="933.333" viewBox="0 0 700.000000 700.000000"><path d="M419 20c-42 3.9-87.7 14.1-131 29.3-47.6 16.7-97.2 40.9-136 66.4-28.6 18.8-47.1 33.6-68.9 54.8-32.2 31.3-51 59.7-62.3 93.9-32.2 97.6-22.4 189.7 28.3 265 9.6 14.4 18.6 25.2 32.9 40 36.8 37.9 83 66.5 137.3 85.2 64.3 22.1 134.9 27 198.2 13.8 58.3-12.2 106.2-36.9 145.8-75.4 31.2-30.1 51.7-62.6 69.1-109.3 13.4-35.7 19.7-63.9 24.2-108.7 2.4-23.3 2.4-80.8.1-105-7.9-80-26.4-142.5-54.8-185-10.2-15.4-26.5-32.3-38.4-39.9-16.3-10.4-42-19.1-68.4-23.2-15.4-2.4-59-3.4-76.1-1.9zM209.5 282.2c5.9 2.7 7.2 10.9 2.6 16l-2.9 3.3-45.1.3-45.1.3v62.1l32.3-.2c17.7-.2 32.9 0 33.8.4 2.3 1 4.9 6 4.9 9.5 0 2-1 4.2-2.9 6.3l-2.9 3.3-32.6-.4-32.6-.3v35c0 20-.4 36.2-1 37.6-1.6 4.2-4.7 6.6-8.5 6.6-4.7 0-8.8-2.2-10.3-5.5-.9-1.9-1.2-23-1.2-84.1 0-90.1-.2-87.1 6.2-89.9 4.4-1.9 101.2-2.2 105.3-.3zm49 1.2c1.8.8 3.8 2.3 4.4 3.4.8 1.4 1.1 19.6 1.1 57 0 59.9.4 65.2 5.5 75.5 3.3 6.5 7.3 10.7 15 15.7 12.5 8.1 27.9 9.3 41 3.1 12.2-5.7 22.3-19 24.4-32.1.7-4 1.1-27.9 1.1-61.5 0-52.7.1-55.1 2-58.2 3.6-5.9 14.2-5 17 1.6.8 2 1 19.8.8 63.7l-.4 60.9-2.3 6.4c-5.4 14.5-18.8 29.6-32.4 36.4-9.8 4.9-17.4 6.7-28.5 6.7-16.7 0-29.7-5.1-42.2-16.7-8.8-8.1-14.2-16.3-17.7-26.6l-2.8-8.2-.3-58.5c-.2-32.2 0-60 .3-61.9.8-4.2 4.6-8.1 8-8.1 1.4 0 4.1.6 6 1.4zm164.1.2c1.8.9 4.4 3.3 5.6 5.3 1.3 2 10.6 14.2 20.8 27.2 10.2 12.9 32.9 42 50.5 64.7l32 41.2.5-66.3c.5-61.7.6-66.5 2.3-69 3.5-5.4 11.8-6 15.7-1 2 2.5 2 3.5 2 86 0 55.3-.3 84.1-1 85.4-1.3 2.4-6.1 4.9-9.4 4.9-3.2 0-7.9-4-13.4-11.5-2.4-3.3-25.8-33.4-52-66.9l-47.7-60.8-.5 66.9c-.4 54.7-.8 67.3-1.9 68.6-.7.9-3 2.2-5.1 2.8-4.9 1.5-8.9-.3-11.2-5.1-1.7-3.2-1.8-9.4-1.8-84s.1-80.8 1.8-84c1.6-3.3 5.2-6 8-6 .8 0 2.9.7 4.8 1.6zM644.3 590c-16.3 3.3-35.1 17.3-42.4 31.8-3.2 6.2-3.4 7.2-3.4 17.1 0 10 .2 11 3.2 16.8 13.2 25.2 45.3 33 68.8 16.7 4.4-3.1 13-12.3 17.6-18.8 6.9-9.8 9.2-16.2 9.3-26.6.1-7.7-.2-9.2-3.2-15.2-8.3-17-28.8-25.9-49.9-21.8z"/></svg>