<?xml version="1.0" standalone="no"?>
<!DOCTYPE svg PUBLIC "-//W3C//DTD SVG 20010904//EN"
 "http://www.w3.org/TR/2001/REC-SVG-20010904/DTD/svg10.dtd">
<svg version="1.0" xmlns="http://www.w3.org/2000/svg"
 width="744.000000pt" height="744.000000pt" viewBox="0 0 744.000000 744.000000"
 preserveAspectRatio="xMidYMid meet">
<metadata>
Created by potrace 1.11, written by Peter Selinger 2001-2013
</metadata>
<g transform="translate(0.000000,744.000000) scale(0.100000,-0.100000)"
fill="#000000" stroke="none">
<path d="M4555 7254 c-772 -60 -1572 -292 -2336 -678 -566 -286 -1022 -606
-1389 -975 -403 -405 -577 -712 -714 -1256 -122 -486 -147 -947 -75 -1390 156
-959 771 -1763 1734 -2266 794 -414 1774 -559 2630 -388 903 180 1604 653
2052 1384 127 206 296 594 377 865 90 302 150 660 177 1055 15 218 6 804 -15
1015 -90 888 -323 1606 -665 2047 -80 104 -212 233 -296 290 -196 132 -490
231 -825 278 -110 15 -541 28 -655 19z m-2315 -2832 c53 -53 46 -141 -13 -174
-17 -10 -138 -14 -502 -18 l-480 -5 -3 -327 -2 -328 355 0 c344 0 356 -1 375
-20 49 -49 53 -116 9 -159 -17 -17 -36 -31 -42 -32 -7 0 -165 -1 -352 -2
l-340 -2 -1 -377 c-1 -267 -5 -386 -13 -407 -28 -66 -133 -74 -181 -14 -20 26
-20 30 -18 928 3 887 3 903 23 925 11 12 29 26 40 31 11 4 267 8 568 8 l549 1
28 -28z m505 4 c18 -8 38 -23 44 -34 8 -14 11 -207 11 -610 0 -651 3 -692 60
-809 39 -78 117 -150 215 -199 63 -31 86 -37 163 -42 151 -8 271 41 366 150
24 28 56 72 71 99 52 96 55 133 55 777 0 515 2 598 15 627 27 56 93 71 152 35
18 -11 35 -30 38 -42 3 -13 4 -320 3 -683 l-3 -660 -24 -64 c-33 -89 -109
-198 -191 -274 -148 -137 -345 -202 -539 -178 -150 19 -254 70 -376 184 -91
84 -140 157 -179 267 l-31 85 -3 649 c-2 482 0 657 9 678 23 56 76 72 144 44z
m1755 -1 c15 -8 38 -31 51 -51 12 -20 67 -93 123 -163 56 -69 301 -384 546
-699 l445 -573 5 715 c5 706 5 715 26 743 27 36 81 51 124 33 63 -26 60 19 60
-958 0 -999 6 -919 -75 -946 -33 -12 -44 -12 -65 -1 -29 15 -84 72 -126 130
-16 22 -240 310 -498 640 -259 330 -488 624 -510 652 l-41 53 -5 -709 c-5
-769 -2 -726 -61 -757 -64 -32 -130 -4 -149 64 -14 51 -14 1713 0 1764 19 68
85 96 150 63z"/>
<path d="M6869 1145 c-191 -38 -386 -189 -466 -360 -25 -53 -28 -71 -28 -161
0 -96 2 -103 38 -176 92 -187 318 -304 520 -270 139 24 249 95 358 230 187
232 195 459 22 623 -61 58 -133 94 -230 114 -82 18 -126 17 -214 0z"/>
</g>
</svg>
