<svg version="1" xmlns="http://www.w3.org/2000/svg" width="393.333" height="393.333" viewBox="0 0 295.000000 295.000000"><path d="M74.7 36.6c-.3.4-.6 28.1-.7 61.6v61l-4.5 3.5c-18.3 13.9-41.1 11.8-49.4-4.6-4.5-8.7-3.4-18.6 3.5-32.2 3.9-7.8 14-18.8 22.7-24.7 5.3-3.6 6.4-6.6 2-5.6-5.9 1.4-16.7 8-22.3 13.5-6.7 6.8-13.1 18.7-15.6 29.4-2.8 12.4-.2 22.5 8.2 31.5 6.1 6.6 11.8 9.1 21.7 9.8 9.8.6 18.5-1.6 26.5-6.7 3.1-2 6.2-4 6.7-4.3.7-.4 1 10.9 1 33v33.7l27.3.3 27.2.2.1-48.7c.1-42.2.2-48.4 1.4-45.8.8 1.6 1.4 4.3 1.5 6 0 3.3 3.3 9.5 5 9.5 1.9 0 2.2-2.8 1.1-10-1.4-8.5-3-12.1-6.5-14-2.5-1.3-2.6-1.6-2.6-11.2 0-5.4-.1-9.8-.2-9.8-.2 0-3 1.4-6.2 3-6.2 3.1-11.7 3.8-15.9 1.9-1.9-.9-3.1-.7-6.3 1-2.1 1.2-5 2.1-6.3 2.1-1.9 0-1.3-.6 2.7-2.6 5.1-2.5 5.2-2.7 4.6-6-1-5.2.2-8 4.1-9.8 3-1.4 4.2-1.5 7-.6 5.4 1.8 4.6 6.3-1.7 10.4-4.1 2.7-3.4 3.6 2.7 3.6 5.6 0 11.9-2.3 14.3-5.3.9-1.1 1.2-10.6 1-37.3l-.3-35.9-26.6-.3c-14.6-.1-26.8.1-27.2.4zM100 57.8c0 1-1.1 4.7-2.5 8.3-2.6 6.5-10.6 32.9-12.4 40.7-.5 2.6-.6 5.6 0 7.5.8 3 .7 3-.6 1.3-2.5-3.3-1.9-14.7 1.6-28.7 3.1-12.6 9.2-28.8 11.2-30.1 1.9-1.2 2.7-.9 2.7 1zm28 77.2c0 2.5-.4 3-2.3 3-3.4 0-6.2 3.6-9.1 11.4-1.3 3.8-3.2 7.6-4 8.5-1.5 1.4-1.6.6-1.6-8.6 0-6.1-.4-10.4-1.1-10.8-1.5-1-7 3-20 14.6-15.8 14.3-14.5 13.4-14.4 9.4.2-3.5-.2-3.2 18.4-19.8 11.3-10.1 17.6-12.1 20.3-6.2 1.3 2.9 2.1 3.1 3.9.8 1.8-2 7-5.3 8.7-5.3.7 0 1.2 1.3 1.2 3z"/><path d="M197.7 45.9c-4 3.6-12 18.6-18.1 34.2-4.1 10.6-14.6 43-14.6 45.2 0 .5-3.4 5-7.5 9.9-7.2 8.6-9.2 12.8-6 12.8.8 0 3.3-1.6 5.4-3.5l3.9-3.6-1.9 7.3c-3 11.3-5.6 23.7-6.4 29.9-.4 3.1-1 6.2-1.5 6.8-.4.8-4.1 1.5-9.4 1.8-9.3.6-12.3 1.9-11.2 4.8.6 1.6 1.7 1.7 10.2 1.3l9.6-.5-.5 4.1c-4.1 31.7-4.6 36.8-3.1 37.3.7.2 2.8-7.8 5.5-20.6l4.4-21 3.5-.5c1.9-.3 6.6-.8 10.3-1.1 6.4-.6 6.8-.5 6.3 1.2-1.4 4.4-9.6 55.4-9.7 60.6-.2 6.5 1.4 9.5 3 5.6 1.2-2.9 10.4-45.6 12.7-59.1 1.6-9.1 1.9-9.8 4.3-10.2 1.4-.3 10.3-1.9 19.6-3.6 20.2-3.6 26.8-5.3 27.2-6.7.7-2-4.3-2.3-13.8-.8-5.2.8-14.9 2.3-21.6 3.3-6.8 1.1-12.3 1.5-12.3 1 0-.8 5.5-31.8 6.4-36.1.6-2.6-2.9-6.5-4.5-5-.6.6-2.9 9.6-5 20-2.1 10.3-4.1 19.7-4.3 20.9-.5 1.9-1.6 2.2-10.6 3-5.5.5-10 .9-10 .8 0-.4 9-44.7 9.8-48.2.6-2.3 1.6-5.1 2.4-6.1.7-1 4.7-6.3 8.8-11.7 15.1-20 23.8-37 28.1-55.2 2.3-9.7 2.1-16.2-.6-19.2-2.5-2.8-4.9-2.5-8.8.9zm3.8 12.8c-2 9.2-7.4 24.2-12 33.3-3.5 6.9-13.4 21.5-14.1 20.7-.9-.9 10.1-31 15.5-42.2 6.2-13 10.9-21 11.8-20.1.3.2-.2 4-1.2 8.3z"/><path d="M240.6 78.2c-.2 1.3-.9 5.3-1.5 9s-3 11.1-5.2 16.5c-6.7 16-8.1 20.5-8.6 26.8-1.3 15.8 7.7 26.7 33.5 40.2 14.9 7.8 30.3 12.4 27.7 8.3-.3-.5-6.4-3.9-13.5-7.5-17-8.7-26.4-15-32.4-21.6-10.8-11.9-10.6-20 .9-47.4 5.7-13.5 6.1-26.5.9-26.5-.8 0-1.6 1-1.8 2.2zM105.6 106.2c-1.9 2.7-2 4.8-.3 4.8 1.6 0 5.7-4.2 5.7-5.8 0-2-3.8-1.3-5.4 1z"/><path d="M248.1 122.1c-6.9.9-9.6 2.5-8.5 5.2.8 2.1 1.7 2.1 22.9.1 20.7-1.9 20.7-1.9 17.6-4.5-2-1.6-3.8-1.9-14-1.8-6.4.1-14.5.5-18 1zM195.1 136.3c-2 2.5.9 4.5 7.2 4.9 3.6.3 6.4 1.1 7.4 2.1 1.6 1.5 1.6 1.9.1 5-1.8 3.7-6 6.1-12.3 7.2-6.5 1.1-6.9 1.3-5.5 3 1.6 1.9 8.2 1.9 14.7 0 12.6-3.7 15.5-16.9 4.9-21.9-4.2-2-14.9-2.2-16.5-.3zM196.3 195.8l-3.3.3V214h19v-17.8l-6.2-.4c-3.5-.1-7.8-.2-9.5 0zM244.7 195.7c-.4.3-.7 4.6-.7 9.4 0 10.1.1 10.2 9.8 9.8 9.5-.4 9.2-.1 9.2-8.9 0-11.3.2-11-9.4-11-4.6 0-8.6.3-8.9.7zM219 205v9h17v-18h-17v9z"/></svg>